<?xml version="1.0" standalone="no"?>
<!DOCTYPE svg PUBLIC "-//W3C//DTD SVG 20010904//EN"
 "http://www.w3.org/TR/2001/REC-SVG-20010904/DTD/svg10.dtd">
<svg version="1.0" xmlns="http://www.w3.org/2000/svg"
 width="512.000000pt" height="512.000000pt" viewBox="0 0 512.000000 512.000000"
 preserveAspectRatio="xMidYMid meet">

<g transform="translate(0.000000,512.000000) scale(0.100000,-0.100000)"
fill="#000000" stroke="none">
<path d="M2677 4951 c-159 -92 -289 -172 -289 -177 0 -5 343 -208 762 -451
l761 -443 289 168 c159 92 291 171 292 177 3 8 -1507 894 -1522 894 -3 0 -135
-76 -293 -168z"/>
<path d="M2116 4250 c-76 -220 -136 -405 -133 -412 3 -7 222 -139 488 -293
364 -211 487 -287 501 -310 10 -16 107 -182 216 -367 108 -185 200 -334 203
-330 10 11 422 1212 418 1216 -11 10 -1541 896 -1548 896 -4 0 -69 -180 -145
-400z"/>
<path d="M905 3928 c-237 -137 -294 -174 -283 -183 7 -7 352 -209 766 -449
l753 -437 282 162 c155 89 288 167 296 174 11 11 -8 25 -105 83 -112 65 -849
493 -1236 718 l-176 102 -297 -170z"/>
<path d="M4276 3906 l-300 -173 -248 -719 c-144 -415 -257 -727 -268 -738 -28
-29 -79 -24 -110 11 -14 16 -126 203 -250 416 -124 212 -228 387 -232 387 -4
0 -150 -83 -325 -184 l-318 -183 -2 -564 c-2 -310 1 -922 5 -1360 l7 -796 271
157 c150 86 284 164 300 174 l27 19 -7 552 c-4 379 -3 562 4 581 19 49 66 68
111 43 16 -8 190 -232 271 -347 l16 -24 161 94 161 93 148 370 c81 203 155
378 165 387 20 21 76 24 102 4 30 -21 33 -90 34 -600 1 -433 2 -478 17 -472
14 5 243 136 499 286 l80 47 0 296 c0 1282 -6 2417 -12 2417 -5 0 -143 -78
-307 -174z"/>
<path d="M523 3158 c4 -248 7 -859 7 -1357 l0 -906 768 -446 767 -446 2 226
c2 124 -1 737 -5 1360 l-7 1135 -760 442 c-418 244 -764 443 -769 444 -6 0 -7
-181 -3 -452z"/>
<path d="M3762 1440 c-41 -102 -81 -193 -90 -204 -10 -10 -34 -27 -56 -38 -21
-11 -34 -23 -30 -28 20 -18 245 -143 249 -138 3 3 4 137 3 299 l-3 294 -73
-185z"/>
</g>
</svg>
